<svg width="906" height="278" viewBox="0 0 906 278" fill="none" xmlns="http://www.w3.org/2000/svg">
<g clip-path="url(#clip0)">
<path d="M961 -83H-58V361H961V-83Z" fill="#E6DECA"/>
<path d="M463.635 95.2596L486.636 75.4791V125.331L463.635 145.111V95.2596Z" fill="#B30000"/>
<path d="M368.246 114.71L391.247 94.9291V125.316L368.246 145.096V114.71Z" fill="#B30000"/>
<path d="M396.269 84.4621L424.968 60.0762V120.718L396.269 145.104V84.4621Z" fill="#B30000"/>
<path d="M429.922 55.6472L458.621 31.0556V120.512L429.922 145.104V55.6472Z" fill="#B30000"/>
<path d="M168.667 158.949H145.204L134.869 197.982H134.629L124.294 158.949H104.661L94.0856 197.982H93.8542L83.7506 158.949H60.3983L81.1883 230.043H104.421L114.301 192.708H114.533L124.645 230.043H147.175L168.667 158.949Z" fill="black"/>
<path fill-rule="evenodd" clip-rule="evenodd" d="M170.998 230.043H193.999V178.363H170.998V230.043ZM193.999 158.949H170.998V172.788H193.999V158.949Z" fill="black"/>
<path fill-rule="evenodd" clip-rule="evenodd" d="M222.348 198.378C223.393 192.803 227.344 189.718 234.199 189.718C235.534 189.693 236.861 189.9 238.1 190.326C239.339 190.753 240.465 191.39 241.409 192.199C242.353 193.008 243.096 193.973 243.593 195.035C244.091 196.097 244.332 197.234 244.303 198.378H222.348ZM266.378 208.661C266.378 188.543 256.043 177.077 232.1 177.077C213.041 177.077 200.264 189.329 200.264 204.357C200.264 221.589 214.789 231.343 234.071 231.343C247.782 231.343 260.448 226.165 265.093 215.015H243.652C241.792 217.505 237.722 218.688 234.011 218.688C226.804 218.688 222.87 214.508 222.27 208.632L266.378 208.661Z" fill="black"/>
<path d="M273.003 230.043H296.012V202.763C296.012 194.5 301.24 192.803 305.182 192.803C311.926 192.803 312.74 196.983 312.74 202.962V230.043H335.741V194.595C335.741 182.748 325.869 177.07 315.063 177.07C305.884 177.07 299.723 179.758 295.43 184.937H295.198V178.363H273.003V230.043Z" fill="black"/>
<path fill-rule="evenodd" clip-rule="evenodd" d="M363.695 198.378C364.741 192.803 368.691 189.718 375.547 189.718C376.882 189.693 378.209 189.9 379.448 190.326C380.687 190.753 381.813 191.39 382.757 192.199C383.701 193.008 384.444 193.973 384.941 195.035C385.439 196.097 385.68 197.234 385.651 198.378H363.695ZM407.726 208.661C407.726 188.543 397.383 177.077 373.448 177.077C354.397 177.077 341.62 189.329 341.62 204.357C341.62 221.589 356.146 231.343 375.427 231.343C389.139 231.343 401.796 226.165 406.449 215.015H384.957C383.097 217.505 379.026 218.688 375.307 218.688C368.109 218.688 364.167 214.508 363.575 208.632L407.726 208.661Z" fill="black"/>
<path d="M413.382 230.043H436.383V209.631C436.383 198.613 441.268 194.001 450.326 194.001C454.979 194.001 455.785 194.397 458.116 194.992V177.569C456.339 177.141 454.491 176.972 452.648 177.07C444.284 177.07 439.408 180.456 435.689 186.619H435.458V178.363H413.382V230.043Z" fill="black"/>
<path fill-rule="evenodd" clip-rule="evenodd" d="M506.037 204.152C506.037 210.329 504.178 217.006 495.925 217.006C487.673 217.006 485.821 210.329 485.821 204.152C485.821 198.084 487.681 191.408 495.925 191.408C504.169 191.408 506.037 198.084 506.037 204.152ZM463.635 230.043H485.821V224.373H486.053C488.958 227.656 492.446 231.336 503.715 231.336C520.794 231.373 529.021 216.903 529.021 203.953C529.021 191.804 523.562 177.07 503.312 177.07C496.456 177.07 490.303 179.663 486.816 184.041H486.584V158.949H463.635V230.043Z" fill="black"/>
<path fill-rule="evenodd" clip-rule="evenodd" d="M555.587 198.378C556.632 192.803 560.583 189.718 567.439 189.718C568.774 189.693 570.101 189.9 571.34 190.326C572.579 190.753 573.704 191.39 574.648 192.199C575.592 193.008 576.336 193.973 576.833 195.035C577.33 196.097 577.572 197.234 577.542 198.378H555.587ZM599.618 208.661C599.618 188.543 589.274 177.077 565.339 177.077C546.289 177.077 533.503 189.329 533.503 204.357C533.503 221.589 548.029 231.343 567.31 231.343C581.022 231.343 593.688 226.165 598.332 215.015H576.84C574.98 217.505 570.91 218.688 567.19 218.688C559.992 218.688 556.05 214.508 555.458 208.632L599.618 208.661Z" fill="black"/>
<path d="M605.514 230.043H628.515V209.631C628.515 198.613 633.391 194.001 642.449 194.001C647.102 194.001 647.908 194.397 650.239 194.992V177.569C648.462 177.141 646.614 176.972 644.771 177.07C636.416 177.07 631.531 180.456 627.821 186.619H627.572V178.363H605.514V230.043Z" fill="black"/>
<path fill-rule="evenodd" clip-rule="evenodd" d="M676.548 201.662C676.548 196.189 679.804 191.378 686.317 191.378C693.053 191.378 696.309 195.859 696.309 201.537C696.309 207.214 695.375 213.487 686.883 213.487C678.63 213.487 676.53 207.508 676.53 201.632L676.548 201.662ZM718.727 178.363H695.726V184.643H695.486C692.821 179.362 686.428 177.07 679.693 177.07C662.502 177.07 653.547 188.323 653.547 201.764C653.547 215.603 661.568 226.158 679.341 226.158C682.517 226.218 685.659 225.593 688.48 224.342C691.301 223.091 693.71 221.253 695.486 218.996H695.726V223.77C695.726 228.053 694.098 235.626 686.66 235.626C682.015 235.626 679.341 233.929 678.647 230.043H655.852C657.943 243.999 673.043 247.275 687.337 247.275C715.565 247.275 718.702 232.834 718.702 222.581V178.363H718.727Z" fill="black"/>
<path fill-rule="evenodd" clip-rule="evenodd" d="M746.69 198.378C747.736 192.803 751.686 189.718 758.533 189.718C759.869 189.693 761.196 189.9 762.436 190.326C763.675 190.753 764.801 191.389 765.746 192.199C766.691 193.008 767.435 193.972 767.933 195.034C768.431 196.096 768.674 197.234 768.646 198.378H746.69ZM790.721 208.661C790.721 188.543 780.378 177.077 756.442 177.077C737.384 177.077 724.606 189.329 724.606 204.357C724.606 221.589 739.123 231.343 758.413 231.343C772.125 231.343 784.791 226.165 789.436 215.015H767.96C766.1 217.505 762.03 218.688 758.319 218.688C751.112 218.688 747.179 214.508 746.587 208.632L790.721 208.661Z" fill="black"/>
<path d="M796.497 230.043H819.532V209.631C819.532 198.613 824.408 194.001 833.475 194.001C838.111 194.001 838.934 194.397 841.256 194.992V177.569C839.482 177.142 837.637 176.973 835.797 177.07C827.433 177.07 822.549 180.456 818.829 186.619H818.598V178.363H796.497V230.043Z" fill="black"/>
</g>
<defs>
<clipPath id="clip0">
<rect width="906" height="278" fill="white"/>
</clipPath>
</defs>
</svg>
