<svg width="912" height="294" viewBox="0 0 912 294" fill="none" xmlns="http://www.w3.org/2000/svg">
<g clip-path="url(#clip0)">
<rect width="906" height="278" transform="translate(5.40088 0.403946) rotate(0.963285)" fill="#E6DECA"/>
<path d="M911.273 15.6353L5.40088 0.403946L0.727228 278.365L906.599 293.596L911.273 15.6353Z" fill="#E6DECA"/>
<path d="M197.196 45.5559C185.155 52.3059 172.879 59.0285 162.516 70.4969C152.874 80.9638 150.108 99.0412 155.572 112.802C161.469 126.209 169.206 138.533 178.512 149.341C172.755 113.434 179.42 76.4121 197.196 45.5559Z" fill="#37A58C"/>
<path d="M185.418 156.385C196.99 164.758 208.567 172.896 222.124 176.588C236.917 180.562 250.773 174.101 259.771 161.101C266.814 148.813 272.377 135.572 276.322 121.715C250.939 145.264 218.541 157.621 185.418 156.385Z" fill="#DD0060"/>
<path d="M275.123 58.0138C272.381 52.2454 268.392 47.3102 263.507 43.6409C258.622 39.9716 252.99 37.6803 247.104 36.9679C233.782 36.1823 220.418 37.457 207.405 40.7547C236.493 51.7315 265.35 78.9192 279.664 110.151C280.627 92.3271 281.676 73.2546 275.123 58.0138Z" fill="#505050"/>
<path d="M755.086 243.479C756.954 238.135 757.822 232.434 757.638 226.719L759.461 118.337L725.745 117.77L723.936 225.304C723.933 226.325 723.747 227.337 723.389 228.28C723.031 229.224 722.508 230.08 721.85 230.803C721.191 231.525 720.411 232.097 719.552 232.488C718.693 232.879 717.774 233.08 716.846 233.079L716.118 233.067C714.284 233.172 712.488 232.475 711.123 231.128C709.757 229.781 708.934 227.893 708.83 225.875L710.652 117.493L677.086 116.929L675.263 225.31C674.844 231.014 675.475 236.748 677.121 242.168C678.443 245.417 680.4 248.302 682.851 250.62C685.302 252.938 688.189 254.633 691.307 255.582C694.31 256.254 697.368 256.589 700.434 256.584L731.239 257.102C734.315 257.218 737.396 257.001 740.436 256.454C743.595 255.617 746.547 254.019 749.08 251.774C751.614 249.53 753.665 246.698 755.086 243.479Z" fill="black"/>
<path d="M598.223 115.556C587.327 115.372 579.553 125.611 579.431 138.006L577.472 254.516L611.723 255.092L612.695 197.249L626.652 197.484L625.68 255.327L659.76 255.9L662.102 116.63L598.223 115.556ZM627.011 173.593L613.118 173.359L613.593 145.085C613.68 139.926 615.468 138.046 619.729 138.117L627.605 138.25L627.011 173.593Z" fill="black"/>
<path d="M529.971 113.239L529.004 170.776L514.019 170.524L514.986 112.987L480.585 112.408L478.243 251.679L512.708 252.258L513.681 194.415L528.452 194.664L527.479 252.507L561.989 253.087L564.33 113.817L529.971 113.239Z" fill="black"/>
<path d="M442.354 139.896L465.73 140.289L466.183 113.335L408.256 112.361L405.914 251.632L463.885 252.606L464.338 225.629L440.791 225.233L441.31 194.368L461.283 194.704L461.685 170.813L441.711 170.477L442.354 139.896Z" fill="black"/>
<path d="M374.99 180.548C379.763 179.659 384.115 176.98 387.306 172.965C390.497 168.949 392.329 163.847 392.49 158.523L392.886 134.962C392.906 122.354 384.706 112.057 375.587 111.904L310.381 110.808L308.041 249.984L342.014 250.555L342.987 192.713L351.549 192.856C355.831 192.928 357.486 195.149 357.401 200.191L356.55 250.8L390.929 251.378L391.734 203.478C391.941 191.179 383.086 181.721 374.99 180.548ZM357.89 162.184C357.947 166.379 356.3 168.85 353.49 169.18L343.342 169.009L343.936 133.668L352.499 133.812C356.781 133.884 358.497 136.269 358.353 140.98L357.89 162.184Z" fill="black"/>
</g>
<defs>
<clipPath id="clip0">
<rect width="906" height="278" fill="white" transform="translate(5.40088 0.403946) rotate(0.963285)"/>
</clipPath>
</defs>
</svg>
