<svg width="906" height="278" viewBox="0 0 906 278" fill="none" xmlns="http://www.w3.org/2000/svg">
<rect width="906" height="278" fill="#E6DECA"/>
<path d="M435.487 185.932H405.489V209.657H434.352V219.868H405.489V244.194H436.298V254.405H395.544V175.781H435.487V185.932Z" fill="#00A94F"/>
<path d="M458.35 175.781H467.539V254.405H458.35V175.781Z" fill="#00A94F"/>
<path d="M503.05 230.019H535.804C535.804 210.919 527.751 201.669 515.535 201.669C502.779 201.669 493.915 212.18 493.915 227.857C493.915 242.032 501.969 255.306 516.4 255.306C524.183 255.306 529.156 253.144 534.993 249.119V239.269C529.426 243.293 524.183 245.455 518.616 245.455C509.698 245.455 504.401 240.23 503.05 230.019ZM515.805 210.318C522.183 210.318 526.345 215.243 526.615 223.292H503.32C504.401 214.943 508.617 210.318 515.805 210.318Z" fill="#00A94F"/>
<path d="M593.908 216.144C588.611 212.12 585.044 210.919 581.152 210.919C572.558 210.919 566.991 218.006 566.991 228.517C566.991 239.329 573.099 245.756 582.558 245.756C586.449 245.756 590.341 244.494 595.043 242.392V252.243C591.692 253.804 585.909 255.306 581.152 255.306C567.261 255.306 557.586 244.494 557.586 229.418C557.586 212.48 566.451 201.669 580.341 201.669C585.909 201.669 589.476 202.93 593.962 205.092V216.144H593.908Z" fill="#00A94F"/>
<path d="M635.257 202.63H649.958V211.88H635.257V238.368C635.257 244.254 639.148 246.056 641.905 246.056C645.256 246.056 648.553 244.795 652.445 242.332V251.882C649.093 253.744 644.121 255.246 641.04 255.246C631.041 255.246 626.068 248.158 626.068 238.908V211.76H618.015V210.498L635.203 191.698V202.63H635.257Z" fill="#00A94F"/>
<path d="M683.145 202.63V214.643C687.847 205.393 692.279 201.669 696.712 201.669C700.333 201.669 703.9 203.531 707.792 207.555L702.765 216.505C700.009 213.441 696.387 211.579 694.171 211.579C687.793 211.579 683.091 218.667 683.091 227.316V254.465H673.956V202.69H683.145V202.63Z" fill="#00A94F"/>
<path d="M733.898 202.63H743.033V254.405H733.898V202.63Z" fill="#00A94F"/>
<path d="M802.542 216.144C797.299 212.12 793.678 210.919 789.786 210.919C781.192 210.919 775.625 218.006 775.625 228.517C775.625 239.329 781.733 245.756 791.137 245.756C795.029 245.756 798.921 244.494 803.623 242.392V252.243C800.272 253.804 794.489 255.306 789.732 255.306C775.841 255.306 766.166 244.494 766.166 229.418C766.166 212.48 775.03 201.669 788.921 201.669C794.488 201.669 798.056 202.93 802.488 205.092V216.144H802.542Z" fill="#00A94F"/>
<path d="M145.183 60.3386C127.671 51.6894 117.185 48.6262 107.024 48.6262C96.1054 48.6262 89.1329 52.9508 89.1329 59.4377C89.1329 79.7393 150.642 74.1533 150.642 120.823C150.642 146.35 131.184 161.486 104.321 161.486C82.9172 161.486 72.4314 155.42 60.7566 148.512V119.502C77.8905 132.475 88.3762 136.8 101.997 136.8C113.672 136.8 119.888 132.475 119.888 124.247C119.888 102.684 58 110.492 58 62.5009C58 39.1361 76.269 24 104.321 24C117.942 24 129.995 27.0032 145.183 34.3911V60.3386Z" fill="#00A94F"/>
<path d="M231.609 155.48C221.124 159.384 212.53 161.546 203.99 161.546C175.181 161.546 156.534 142.927 156.534 114.396C156.534 86.7067 175.992 67.246 202.855 67.246C211.016 67.246 221.934 69.4083 230.474 73.3125V94.515C223.448 90.6109 215.665 88.0281 209.449 88.0281C193.882 88.0281 184.153 98.4192 184.153 114.396C184.153 130.373 193.882 141.185 208.692 141.185C214.908 141.185 220.367 139.443 231.663 134.698V155.48H231.609Z" fill="#00A94F"/>
<path d="M298.145 144.248V107.909C298.145 94.515 293.064 88.0281 284.903 88.0281C279.065 88.0281 273.985 92.3527 267.769 101.843V159.804H242.095V25.7419H267.769V82.3821H268.147C275.552 71.9911 283.714 67.246 293.821 67.246C309.009 67.246 323.765 77.2166 323.765 101.843V138.602C315.279 138.602 304.739 142.086 298.145 144.248Z" fill="#00A94F"/>
<path d="M335.872 136.86C335.872 120.403 335.872 68.9879 335.872 68.9879H361.546V81.9617C369.708 71.5706 377.869 67.246 388.409 67.246C401.273 67.246 417.975 75.4748 417.975 101.843V159.804H392.301V104.426C392.301 91.4518 386.842 86.2863 379.437 86.2863C373.221 86.2863 368.519 90.1904 361.546 101.422C361.546 101.422 361.546 126.529 361.546 141.245C353.006 138.602 344.088 137.761 335.872 136.86Z" fill="#00A94F"/>
<path d="M471.322 67.246C446.027 67.246 428.136 87.1272 428.136 114.817C428.136 142.927 446.837 161.546 475.646 161.546C482.24 161.546 497.428 161.546 512.238 149.413V131.695C500.185 141.185 492.023 144.668 481.862 144.668C465.917 144.668 455.81 135.178 454.999 119.141H513.373C514.941 85.8658 495.104 67.246 471.322 67.246ZM455.377 104.005C456.566 91.4518 463.161 84.124 473.268 84.124C482.997 84.124 490.024 91.9323 490.78 104.005H455.377Z" fill="#00A94F"/>
<path d="M523.481 68.9878H549.154V159.804H523.481V68.9878Z" fill="#00A94F"/>
<path d="M620.393 25.7419V72.892C613.745 69.4083 606.772 67.246 599.367 67.246C576.017 67.246 559.694 86.2863 559.694 114.396C559.694 141.665 576.017 161.546 597.854 161.546C606.394 161.546 613.42 158.964 620.447 152.477V159.804H646.121V25.7419H620.393ZM620.393 135.118C615.312 140.344 610.664 142.446 605.205 142.446C593.151 142.446 585.368 131.214 585.368 114.757C585.368 96.5572 593.151 86.2262 606.015 86.2262C610.664 86.2262 616.879 88.3885 620.393 91.3917V135.118V135.118Z" fill="#00A94F"/>
<path d="M700.171 67.246C674.875 67.246 656.985 87.1272 656.985 114.817C656.985 142.927 675.686 161.546 704.441 161.546C710.657 161.546 726.223 161.546 741.033 149.413V131.695C728.98 141.185 720.764 144.668 710.657 144.668C694.333 144.668 684.604 135.178 683.415 119.141H742.168C743.357 85.8658 723.899 67.246 700.171 67.246ZM684.226 104.005C685.361 91.4518 691.631 84.124 701.738 84.124C711.846 84.124 718.44 91.9323 719.629 104.005H684.226Z" fill="#00A94F"/>
<path d="M780.76 94.9355H781.138C788.543 75.8952 797.083 67.246 807.244 67.246C812.271 67.246 816.595 69.4083 824 75.4748L816.973 100.581C810.379 95.8364 806.055 94.0946 801.785 94.0946C792.435 94.0946 786.219 104.065 780.76 120.463V159.804H755.086V68.9879H780.76V94.9355Z" fill="#00A94F"/>
<path d="M550.344 30.4869C552.668 37.8147 548.398 47.7853 540.615 52.5304C532.831 57.6959 524.67 56.0141 522.292 49.0467C519.967 42.1393 524.237 32.1687 532.021 27.0032C539.858 21.8377 548.019 23.5796 550.344 30.4869Z" fill="#00A94F"/>
<path d="M743.573 184.07C744.384 186.533 742.762 189.956 739.952 191.758C737.195 193.62 734.385 193.02 733.574 190.497C732.763 188.034 734.114 184.671 736.925 182.809C739.736 181.007 742.492 181.608 743.573 184.07Z" fill="#00A94F"/>
<path d="M274.741 177.703C301.496 146.771 339.602 137.1 359.546 156.14C379.491 175.181 373.978 215.844 347.223 246.717C320.468 277.59 282.363 287.26 262.418 268.28C242.473 249.239 247.987 208.576 274.741 177.703Z" fill="#00A94F"/>
<path d="M293.767 251.402H266.904L271.174 233.142L286.146 233.323C288.524 233.323 291.659 231.521 292.146 228.938L298.74 196.624C301.442 183.289 316.414 172.778 328.684 172.778H355.276L351.763 189.296L337.818 189.476C334.683 189.536 333.656 190.317 332.954 193.08L324.576 228.157C321.387 241.431 306.199 251.402 293.767 251.402Z" fill="#00A94F"/>
<path d="M259.607 201.008C261.499 197.104 263.715 193.2 266.256 189.356H281.714L278.309 201.008H259.607Z" fill="#E6DECA"/>
<path d="M252.094 223.172C252.851 219.328 253.878 215.424 255.229 211.519H276.687L273.282 223.172H252.094Z" fill="#E6DECA"/>
<path d="M363.978 221.31C362.195 225.214 360.087 229.178 357.654 232.962H336.953L340.358 221.31H363.978Z" fill="#E6DECA"/>
<path d="M370.897 199.146C370.248 202.99 369.329 206.894 368.032 210.799H341.926L345.331 199.146H370.897Z" fill="#E6DECA"/>
<path d="M293.767 251.402H266.904L271.174 233.142L286.146 233.323C288.524 233.323 291.659 231.521 292.146 228.938L298.74 196.624C301.442 183.289 316.414 172.778 328.684 172.778H355.276L351.763 189.296L337.818 189.476C334.683 189.536 333.656 190.317 332.954 193.08L324.576 228.157C321.387 241.431 306.199 251.402 293.767 251.402Z" fill="#E6DECA"/>
</svg>
